<?xml version="1.0" encoding="utf-8"?>
<!-- Uploaded to: SVG Repo, www.svgrepo.com, Generator: SVG Repo Mixer Tools -->
<svg width="800px" height="800px" viewBox="0 0 1024 1024" class="icon"  version="1.1" xmlns="http://www.w3.org/2000/svg"><path d="M266.6 239.7c-13.8 0-20.7-9.8-25.7-17-5.1-7.3-7.7-10.2-12.7-10.2s-7.5 3-12.7 10.2c-5.1 7.2-12 17-25.7 17-13.8 0-20.7-9.8-25.7-17-5.1-7.3-7.7-10.2-12.7-10.2s-7.5 3-12.7 10.2c-5.1 7.2-12 17-25.7 17s-20.7-9.8-25.7-17c-5.1-7.3-7.7-10.2-12.7-10.2-4.4 0-8-3.6-8-8s3.6-8 8-8c13.8 0 20.7 9.8 25.7 17 5.1 7.3 7.7 10.2 12.7 10.2s7.5-3 12.7-10.2c5.1-7.2 12-17 25.7-17s20.7 9.8 25.7 17c5.1 7.3 7.7 10.2 12.7 10.2 5 0 7.5-3 12.7-10.2 5.1-7.2 12-17 25.7-17s20.7 9.8 25.7 17c5.1 7.3 7.7 10.2 12.7 10.2 4.4 0 8 3.6 8 8s-3.6 8-8 8zM266.6 289.7c-13.8 0-20.7-9.8-25.7-17-5.1-7.3-7.7-10.2-12.7-10.2s-7.5 3-12.7 10.2c-5.1 7.2-12 17-25.7 17-13.8 0-20.7-9.8-25.7-17-5.1-7.3-7.7-10.2-12.7-10.2s-7.5 3-12.7 10.2c-5.1 7.2-12 17-25.7 17s-20.7-9.8-25.7-17c-5.1-7.3-7.7-10.2-12.7-10.2-4.4 0-8-3.6-8-8s3.6-8 8-8c13.8 0 20.7 9.8 25.7 17 5.1 7.3 7.7 10.2 12.7 10.2s7.5-3 12.7-10.2c5.1-7.2 12-17 25.7-17s20.7 9.8 25.7 17c5.1 7.3 7.7 10.2 12.7 10.2 5 0 7.5-3 12.7-10.2 5.1-7.2 12-17 25.7-17s20.7 9.8 25.7 17c5.1 7.3 7.7 10.2 12.7 10.2 4.4 0 8 3.6 8 8s-3.6 8-8 8zM954.6 700.7c-13.8 0-20.7-9.8-25.7-17-5.1-7.3-7.7-10.2-12.7-10.2s-7.5 3-12.7 10.2c-5.1 7.2-12 17-25.7 17-13.8 0-20.7-9.8-25.7-17-5.1-7.3-7.7-10.2-12.7-10.2s-7.5 3-12.7 10.2c-5.1 7.2-12 17-25.7 17s-20.7-9.8-25.7-17c-5.1-7.3-7.7-10.2-12.7-10.2-4.4 0-8-3.6-8-8s3.6-8 8-8c13.8 0 20.7 9.8 25.7 17 5.1 7.3 7.7 10.2 12.7 10.2s7.5-3 12.7-10.2c5.1-7.2 12-17 25.7-17s20.7 9.8 25.7 17c5.1 7.3 7.7 10.2 12.7 10.2 5 0 7.5-3 12.7-10.2 5.1-7.2 12-17 25.7-17s20.7 9.8 25.7 17c5.1 7.3 7.7 10.2 12.7 10.2 4.4 0 8 3.6 8 8s-3.6 8-8 8zM954.6 750.7c-13.8 0-20.7-9.8-25.7-17-5.1-7.3-7.7-10.2-12.7-10.2s-7.5 3-12.7 10.2c-5.1 7.2-12 17-25.7 17-13.8 0-20.7-9.8-25.7-17-5.1-7.3-7.7-10.2-12.7-10.2s-7.5 3-12.7 10.2c-5.1 7.2-12 17-25.7 17s-20.7-9.8-25.7-17c-5.1-7.3-7.7-10.2-12.7-10.2-4.4 0-8-3.6-8-8s3.6-8 8-8c13.8 0 20.7 9.8 25.7 17 5.1 7.3 7.7 10.2 12.7 10.2s7.5-3 12.7-10.2c5.1-7.2 12-17 25.7-17s20.7 9.8 25.7 17c5.1 7.3 7.7 10.2 12.7 10.2 5 0 7.5-3 12.7-10.2 5.1-7.2 12-17 25.7-17s20.7 9.8 25.7 17c5.1 7.3 7.7 10.2 12.7 10.2 4.4 0 8 3.6 8 8s-3.6 8-8 8z" fill="#9A2D2F" /><path d="M349.6 106.1m-32 0a32 32 0 1 0 64 0 32 32 0 1 0-64 0Z" fill="#FFEB4D" /><path d="M349.6 146.1c-22.1 0-40-17.9-40-40s17.9-40 40-40 40 17.9 40 40-17.9 40-40 40z m0-64c-13.2 0-24 10.8-24 24s10.8 24 24 24 24-10.8 24-24-10.8-24-24-24z" fill="#9A2D2F" /><path d="M577.5 594.1h-405v56h512v-56z" fill="#FFE0B6" /><path d="M172.5 505.1h512v56h-512z" fill="#DAE5FF" /><path d="M716.5 767.1h-576l32-54h512z" fill="#FFD7F5" /><path d="M579.5 161l-22.6-22.6 18.4-18.4c6.2-6.2 16.4-6.2 22.6 0 6.2 6.2 6.2 16.4 0 22.6L579.5 161z" fill="#DAE5FF" /><path d="M567.8 150.1c-31.2-31.2-81.9-31.2-113.1 0l113.1 113.1c31.2-31.2 31.2-81.8 0-113.1z" fill="#FFACC2" /><path d="M926.5 914.1H745.6l-0.5-758.7c0-3-1.7-5.8-4.4-7.2L623.9 90.1c-3.7-1.9-8.2-0.5-10.4 3l-16.7 16.7c-8.9-4.2-19.9-2.7-27.3 4.7L554 130c-33.5-18.7-76.7-13.8-105.1 14.6-1.5 1.5-2.3 3.5-2.3 5.7s0.8 4.2 2.3 5.7L562 269.1c1.5 1.5 3.5 2.3 5.7 2.3s4.2-0.8 5.7-2.3c28.4-28.4 33.3-71.6 14.6-105.1l15.5-15.5c4.5-4.5 7-10.5 7-17 0-3.6-0.8-7.2-2.3-10.3l13.9-13.9 107 53.3 0.5 753.7h-97.1v-139h84c2.9 0 5.5-1.5 7-4 1.4-2.5 1.4-5.6-0.1-8l-32-54c-1.4-2.4-4.1-3.9-6.9-3.9h-107v-47h107c4.4 0 8-3.6 8-8v-56c0-4.4-3.6-8-8-8h-107v-17h107c4.4 0 8-3.6 8-8v-56c0-4.4-3.6-8-8-8h-512c-4.4 0-8 3.6-8 8v56c0 4.4 3.6 8 8 8h108v17h-108c-4.4 0-8 3.6-8 8v56c0 4.4 3.6 8 8 8h108v47h-108c-2.8 0-5.4 1.5-6.9 3.9l-32 54c-1.5 2.5-1.5 5.5-0.1 8s4.1 4 7 4h84v139h-122c-4.4 0-8 3.6-8 8s3.6 8 8 8h824c4.4 0 8-3.6 8-8s-3.5-8.2-8-8.2zM567.4 251.6L466.2 150.4c28.2-22.6 69.7-20.8 95.9 5.3 26.2 26.2 27.9 67.7 5.3 95.9zM592.2 137l-12.7 12.7-11.3-11.3 12.7-12.7c3.1-3.1 8.2-3.1 11.3 0 1.5 1.5 2.3 3.5 2.3 5.7 0 2.1-0.8 4.1-2.3 5.6zM180.5 553.1v-40h496v40h-496z m381 16v17h-265v-17h265z m-381 73v-40h496v40h-496z m381 16v47h-265v-47h265z m-406.9 101l22.5-38H680l22.5 38H154.6z m85.9 16h376v139h-376v-139z" fill="#9A2D2F" /><path d="M466.2 150.4l31.9 31.9c17.9-12.6 31.9-25.9 31.9-45.1-21.6-5.8-45.4-1.4-63.8 13.2zM327.9 732.2c18 0.5 35.1 13.7 65.2 8.9 11.5-1.9 24.2-12.7 55.2-10.7 22 1.4 50-0.5 68.3-9.3H305.2c0.1 9.6 13.7 10.9 22.7 11.1zM198.5 721.1h-21.4l-13.3 22.5c14.1-2.5 27.1-9 34.7-22.5zM680 721.1s1 16.6-22.3 15.6-29.5-5.1-51.4-5.1c-20.2 0-29.5-10.6-29.5-10.6H680z" fill="#FFFFFF" /></svg>