<?xml version="1.0" encoding="utf-8"?>
<!-- Uploaded to: SVG Repo, www.svgrepo.com, Generator: SVG Repo Mixer Tools -->
<svg width="800px" height="800px" viewBox="0 0 1024 1024" class="icon"  version="1.1" xmlns="http://www.w3.org/2000/svg"><path d="M951 732.5c-13.8 0-20.7-9.8-25.7-17-5.1-7.3-7.7-10.2-12.7-10.2s-7.5 3-12.7 10.2c-5.1 7.2-12 17-25.7 17-13.8 0-20.7-9.8-25.7-17-5.1-7.3-7.7-10.2-12.7-10.2s-7.5 3-12.7 10.2c-5.1 7.2-12 17-25.7 17-13.8 0-20.7-9.8-25.7-17-5.1-7.3-7.7-10.2-12.7-10.2-4.4 0-8-3.6-8-8s3.6-8 8-8c13.8 0 20.7 9.8 25.7 17 5.1 7.3 7.7 10.2 12.7 10.2 5 0 7.5-3 12.7-10.2 5.1-7.2 12-17 25.7-17s20.7 9.8 25.7 17c5.1 7.3 7.7 10.2 12.7 10.2 5 0 7.5-3 12.7-10.2 5.1-7.2 12-17 25.7-17s20.7 9.8 25.7 17c5.1 7.3 7.7 10.2 12.7 10.2 4.4 0 8 3.6 8 8s-3.6 8-8 8zM951 682.5c-13.8 0-20.7-9.8-25.7-17-5.1-7.3-7.7-10.2-12.7-10.2s-7.5 3-12.7 10.2c-5.1 7.2-12 17-25.7 17-13.8 0-20.7-9.8-25.7-17-5.1-7.3-7.7-10.2-12.7-10.2s-7.5 3-12.7 10.2c-5.1 7.2-12 17-25.7 17-13.8 0-20.7-9.8-25.7-17-5.1-7.3-7.7-10.2-12.7-10.2-4.4 0-8-3.6-8-8s3.6-8 8-8c13.8 0 20.7 9.8 25.7 17 5.1 7.3 7.7 10.2 12.7 10.2 5 0 7.5-3 12.7-10.2 5.1-7.2 12-17 25.7-17s20.7 9.8 25.7 17c5.1 7.3 7.7 10.2 12.7 10.2 5 0 7.5-3 12.7-10.2 5.1-7.2 12-17 25.7-17s20.7 9.8 25.7 17c5.1 7.3 7.7 10.2 12.7 10.2 4.4 0 8 3.6 8 8s-3.6 8-8 8zM262 283.4c-13.8 0-20.7-9.8-25.7-17-5.1-7.3-7.7-10.2-12.7-10.2s-7.5 3-12.7 10.2c-5.1 7.2-12 17-25.7 17-13.8 0-20.7-9.8-25.7-17-5.1-7.3-7.7-10.2-12.7-10.2s-7.5 3-12.7 10.2c-5.1 7.2-12 17-25.7 17-13.8 0-20.7-9.8-25.7-17-5.1-7.3-7.7-10.2-12.7-10.2-4.4 0-8-3.6-8-8s3.6-8 8-8c13.8 0 20.7 9.8 25.7 17 5.1 7.3 7.7 10.2 12.7 10.2 5 0 7.5-3 12.7-10.2 5.1-7.2 12-17 25.7-17s20.7 9.8 25.7 17c5.1 7.3 7.7 10.2 12.7 10.2 5 0 7.5-3 12.7-10.2 5.1-7.2 12-17 25.7-17s20.7 9.8 25.7 17c5.1 7.3 7.7 10.2 12.7 10.2 4.4 0 8 3.6 8 8s-3.6 8-8 8zM262 233.4c-13.8 0-20.7-9.8-25.7-17-5.1-7.3-7.7-10.2-12.7-10.2s-7.5 3-12.7 10.2c-5.1 7.2-12 17-25.7 17-13.8 0-20.7-9.8-25.7-17-5.1-7.3-7.7-10.2-12.7-10.2s-7.5 3-12.7 10.2c-5.1 7.2-12 17-25.7 17-13.8 0-20.7-9.8-25.7-17-5.1-7.3-7.7-10.2-12.7-10.2-4.4 0-8-3.6-8-8s3.6-8 8-8c13.8 0 20.7 9.8 25.7 17 5.1 7.3 7.7 10.2 12.7 10.2 5 0 7.5-3 12.7-10.2 5.1-7.2 12-17 25.7-17s20.7 9.8 25.7 17c5.1 7.3 7.7 10.2 12.7 10.2 5 0 7.5-3 12.7-10.2 5.1-7.2 12-17 25.7-17s20.7 9.8 25.7 17c5.1 7.3 7.7 10.2 12.7 10.2 4.4 0 8 3.6 8 8s-3.6 8-8 8z" fill="#9A2D2F" /><path d="M352 102.3m-32 0a32 32 0 1 0 64 0 32 32 0 1 0-64 0Z" fill="#FFEB4D" /><path d="M352 142.3c-22.1 0-40-17.9-40-40s17.9-40 40-40 40 17.9 40 40-17.9 40-40 40z m0-64c-13.2 0-24 10.8-24 24s10.8 24 24 24 24-10.8 24-24-10.8-24-24-24z" fill="#9A2D2F" /><path d="M698 277.3m-106 0a106 106 0 1 0 212 0 106 106 0 1 0-212 0Z" fill="#C0FCD0" /><path d="M793 383.3m-106 0a106 106 0 1 0 212 0 106 106 0 1 0-212 0Z" fill="#FFACC2" /><path d="M793.3 285c-39 0-72.7 22.9-88.5 55.9 4 1.4 13.9-11.4 36.3-9.5 15.2 1.2 18.3-17.7 30-22.2 8.8-3.4 19.3 4.5 32.9 1.8 11.1-2.2 24.6-19.2 9.9-23.6-6.6-1.6-13.5-2.4-20.6-2.4z" fill="#FFFFFF" /><path d="M611 383.3m-106 0a106 106 0 1 0 212 0 106 106 0 1 0-212 0Z" fill="#FFEB4D" /><path d="M604.4 248.6c0 6.8 16.7-22.2 20.7-19.7s2.1 23.2 11.2 24c10 0.9 17.7-7.9 22.5-17.5 5.8-11.5 6-26.8 19.5-29 11.9-2 15.9 9.8 26.5 13 12.5 3.8 27.5-1.4 33.9-8.2 2.9-3.1 10.4-10.2 1.5-21.8-12.8-6.1-27.1-9.5-42.2-9.5-43.9-0.2-81.1 28.8-93.6 68.7zM611.3 285c-37 0-69.3 20.6-86 51-5 8.4-0.9 14.9 5.3 12.4 17-6.7 20.3-24.7 41.3-27.7 10.9-1.6 56 26.7 77-0.3 12.9-16.6 40.7 1.7 28.2-9.9-17.3-15.8-40.4-25.5-65.8-25.5z" fill="#FFFFFF" /><path d="M491 385.9c0 114.3 92.7 206.9 207 206.9s207-92.6 207-206.9v-0.1H491v0.1z" fill="#DAE5FF" /><path d="M873.9 478.8c-14.8 26-24.3 20.3-36 30.8-29.1 26.3-58 15.2-88.9 22.2-29.3 6.7-38.7 52.6-86.3 42.9-27.9-5.7-51.3-10.6-50.9-9.6 26.1 12.6 55.4 19.7 86.2 19.7 76.1-0.1 142.4-43.1 175.9-106z" fill="#FFFFFF" /><path d="M139 661.3h472v288H139z" fill="#FFE0B6" /><path d="M611 661.3H139l335.6-70z" fill="#FFACC2" /><path d="M139 757.3h472v96H139z" fill="#FFD7F5" /><path d="M386.3 546.2s21.8-9.8 39.1 4c13.1 10.5 19.7 30.6 14.8 56.8-5.3 28.7-36.7 30.7-46.7 26.7s-0.9-6.8-16.3-0.7c-15.3 6.1-55.2-12.5-48.6-49.5 8.1-44.7 49.7-45.3 57.7-37.3z" fill="#FFACC2" /><path d="M912 941.8H706V600.7c54.4-2 105.3-24.1 144-62.8 40.6-40.6 63-94.5 63-151.9v-0.1c0-3.8-2.6-6.9-6.1-7.8-2.5-54.1-42.8-98.5-95.1-107.2-3.3-59.9-53.1-107.6-113.8-107.6-61.3 0-111.4 48.6-113.9 109.2-48.2 11.7-84.5 54.1-87 105.3H491c-4.4 0-7.9 3.5-8 7.9v0.2c0 57.4 22.4 111.4 63 151.9 38.7 38.7 89.6 60.8 144 62.8v341.2h-71V661.3c0-0.5-0.1-1-0.2-1.5v-0.2c0-0.2-0.1-0.3-0.1-0.5 0-0.1-0.1-0.2-0.1-0.3 0-0.1-0.1-0.3-0.2-0.4 0-0.1-0.1-0.2-0.1-0.3-0.1-0.2-0.1-0.3-0.2-0.4 0-0.1-0.1-0.1-0.1-0.2-0.2-0.4-0.5-0.8-0.8-1.2 0 0 0-0.1-0.1-0.1-0.1-0.2-0.3-0.3-0.4-0.5l-0.1-0.1-0.4-0.4c-0.1 0-0.1-0.1-0.2-0.1-0.1-0.1-0.3-0.2-0.4-0.3-0.1 0-0.1-0.1-0.2-0.1-0.1-0.1-0.3-0.2-0.4-0.2-0.1 0-0.2-0.1-0.3-0.1h-0.1l-136.5-70c-1.6-0.8-3.5-1.1-5.3-0.7l-22.9 4.8c-0.5-18.7-7.2-34.2-19.5-43.9-12.5-10-26.7-10-36.2-8.3 1.4-33.7 6.2-103.3 16-122.9 14.7-29.5 37.3-21.8 39.8-20.8 4.1 1.6 8.7-0.3 10.4-4.4 1.7-4.1-0.3-8.8-4.4-10.4-1-0.4-10.2-4-22.1-2.2-11.1 1.6-26.8 8.3-37.9 30.7-12.3 24.7-16.5 102.1-17.6 129.1-6.3-0.9-13.6-0.3-20.7 1.9-11.3 3.6-31.2 14.2-36.8 45.5-2 11.3-0.3 22.2 4.6 31.7l-188 39.2c-0.5 0.1-1 0.3-1.5 0.4-0.1 0.1-0.3 0.1-0.4 0.2-0.1 0-0.2 0.1-0.3 0.1-0.1 0.1-0.2 0.1-0.3 0.2-0.1 0.1-0.2 0.1-0.3 0.2-0.1 0.1-0.2 0.1-0.3 0.2-0.1 0.1-0.2 0.2-0.3 0.2-0.1 0.1-0.2 0.2-0.3 0.2l-0.3 0.3-0.3 0.3c-0.1 0.1-0.2 0.2-0.2 0.3l-0.3 0.3c-0.1 0.1-0.1 0.2-0.2 0.3-0.1 0.1-0.2 0.2-0.2 0.4-0.1 0.1-0.1 0.2-0.2 0.3-0.1 0.1-0.1 0.3-0.2 0.4 0 0.1-0.1 0.2-0.1 0.3-0.1 0.1-0.1 0.3-0.2 0.4 0 0.1-0.1 0.2-0.1 0.3 0 0.1-0.1 0.3-0.1 0.4 0 0.1-0.1 0.2-0.1 0.3 0 0.1-0.1 0.3-0.1 0.4 0 0.1 0 0.2-0.1 0.4 0 0.1 0 0.3-0.1 0.4v281.2H98c-4.4 0-8 3.6-8 8s3.6 8 8 8h814c4.4 0 8-3.6 8-8s-3.6-8.3-8-8.3zM336.6 585.4c3.7-20.8 15.2-29.2 24.1-32.5 9.9-3.7 18.3-1.9 20-0.6 2.4 2.3 5.9 3 8.9 1.6 0.2-0.1 17.5-7.7 30.9 3 8.8 7 13.5 19.5 13.4 34.7 0 4.6-0.5 9.4-1.4 14.4-0.1 0.8-0.3 1.6-0.5 2.3-1.8 6.9-5.8 12-11.8 15.4-9.1 5-20 4.4-23.5 3-1.8-0.7-2.2-1.1-2.4-1.4-2.2-2.5-4.5-3.4-6.9-3.4-2.8 0-5.7 1.2-9 2.5-1.1 0.4-2.4 1-3.9 1.6-2.9 1.2-9.2 0.6-16-2.4-3.2-1.4-6.5-3.3-9.6-5.9-2.3-1.9-4.7-4.2-6.7-7.1-4.5-5.8-7.6-14.2-5.6-25.2z m-0.2 42.9c0.7 0.7 1.5 1.3 2.2 1.9 13 10.6 30.5 15.1 41.7 10.7 1.6-0.6 2.9-1.2 4-1.6 0.4-0.2 0.8-0.3 1.1-0.5 1.3 0.9 3 1.8 5.2 2.7 3.4 1.4 8 2.1 13.1 2.1 7.6 0 16.4-1.8 24.1-6 11-6 18-16 20.4-28.8 0.3-1.4 0.5-2.8 0.7-4.1l24.5-5.1 104.5 53.6H216.5l119.9-24.9z m-189.4 41h456v80H147v-80z m0 96h456v80H147v-80z m0 96h456v80H147v-80z m743.8-483.5H695.2c0-0.8 0.1-1.7 0.2-2.5 0.8-9.9 3.1-19.4 6.7-28.3 2.5-6.3 5.6-12.2 9.3-17.7 17.6-26.4 47.6-43.9 81.7-43.9h2.7c5.4 0.1 10.7 0.7 15.9 1.7 43.3 8.4 76.6 45.5 79.1 90.7zM698 179.3c51.4 0 93.6 39.7 97.7 90H793c-37.1 0-70.2 17.8-91 45.4-20.8-27.6-53.9-45.4-91-45.4-3.6 0-7.2 0.2-10.7 0.5 3.8-50.5 46.2-90.5 97.7-90.5zM584.6 288.9c5.1-1.4 10.4-2.5 15.8-3 3.5-0.4 7-0.6 10.6-0.6 34.1 0 64.1 17.5 81.7 43.9-7.3 13.4-11.9 28.4-13.3 44.3-0.1 1.4-0.2 2.8-0.3 4.3h-166c2.4-42.4 32-77.8 71.5-88.9z m108.8 295.9c-105-2.4-190.2-86.4-194.3-190.9h397.7c-4.1 104.5-89.3 188.6-194.3 190.9-1.2-0.9-7.8-0.9-9.1 0z" fill="#9A2D2F" /><path d="M358.7 566s4.3-7.9 9.7-6.7c5.3 1.2 4.3 4.8 3.1 9.1-1.1 4-5.3 12.6-10.2 10.9-4.2-1.5-5.2-7.8-2.6-13.3z" fill="#FFFFFF" /></svg>